# xmcd
#
# Track frame offsets: 
#        150
#        1281
#        20050
#        42524
#        67938
#        71642
#        95580
#        115678
#        121214
#        142782
#        168739
#        193834
#        215420
#        229961
#        254100
#        261148
#        268349
#        297048
#        305295
#        326873
#        337316
#
# Disc length: 4781 seconds
#
# Revision: 0
# Processed by: cddbd v1.5.2PL0 Copyright (c) Steve Scherf et al.
# Submitted via: ExactAudioCopy v0.99pb5
#
DISCID=4c12ab15
DTITLE=Lucinda Williams - NY [1 World Without Tears]
DYEAR=2007
DGENRE=Folk/Rock
TTITLE0="Hey everybody"
TTITLE1=Fruits of My Labor
TTITLE2=Righteously
TTITLE3=Ventura
TTITLE4="This is a song"
TTITLE5=Real Live Bleeding Fingers and Broken Guitar Strings
TTITLE6=Over Time
TTITLE7="Well, I decided"
TTITLE8=Those Three Days
TTITLE9=Atonement
TTITLE10=Sweet Side
TTITLE11=Minneapolis
TTITLE12="I want to introduce the band"
TTITLE13=People Talkin'
TTITLE14=I'm havin' too good a time"
TTITLE15='Pity the Nation'
TTITLE16=American Dream
TTITLE17="I'm already on the FBI list"
TTITLE18=World Without Tears
TTITLE19="Y'all, I can't tell you"
TTITLE20=Words Fell
EXTD=
EXTT0=
EXTT1=
EXTT2=
EXTT3=
EXTT4=
EXTT5=
EXTT6=
EXTT7=
EXTT8=
EXTT9=
EXTT10=
EXTT11=
EXTT12=
EXTT13=
EXTT14=
EXTT15=
EXTT16=
EXTT17=
EXTT18=
EXTT19=
EXTT20=
PLAYORDER=
